P2
# result after convolution
64	64
878
0	0	0	0	0	0	0	0	0	0	0	0	0	0	0	0	0	0	0	0	0	0	0	0	0	0	0	0	0	0	0	0	0	0	0	0	0	0	0	0	0	0	0	0	0	0	0	0	0	0	0	0	0	0	0	0	0	0	0	0	0	0	0	0	0	12	7	40	64	15	204	357	144	68	25	15	43	81	60	36	26	15	5	9	18	10	11	9	14	14	10	7	8	11	10	10	10	15	11	6	1	30	72	51	141	239	100	29	42	36	34	15	8	63	275	281	299	555	168	43	15	6	15	28	37	239	400	0	0	12	25	54	29	38	187	349	144	72	22	6	42	82	58	35	24	17	11	8	15	17	15	7	8	22	31	25	21	27	24	10	13	17	13	9	11	23	59	75	70	232	166	39	10	14	25	24	19	9	142	358	76	516	431	43	29	11	29	29	254	420	295	0	0	26	43	45	15	38	171	349	140	75	21	4	40	78	56	35	25	16	20	17	14	15	11	9	19	41	38	37	34	40	42	21	14	18	12	9	10	15	51	75	36	206	189	66	21	20	20	16	17	24	22	260	347	199	581	257	30	29	39	262	425	282	63	0	0	34	22	17	36	26	170	354	134	77	20	4	40	77	53	30	24	13	14	15	10	9	7	13	15	29	26	50	56	38	12	30	23	15	6	11	1	12	47	67	22	175	181	86	35	21	21	13	8	24	44	117	385	200	451	514	86	69	247	420	263	44	18	0	0	13	66	92	54	6	175	361	138	83	25	1	41	78	53	27	17	4	12	7	5	11	3	29	71	118	181	242	278	294	270	192	90	18	12	11	6	20	48	56	14	153	163	80	51	27	25	22	31	55	60	54	272	415	84	591	364	207	400	272	33	1	43	0	0	60	176	125	112	18	181	377	156	91	41	16	47	75	53	26	15	9	14	10	28	30	20	64	79	103	151	177	183	231	296	349	357	243	67	26	25	35	52	55	24	157	151	53	49	34	34	43	52	52	41	21	126	394	286	364	659	456	260	40	21	30	34	0	0	211	253	193	181	15	190	399	173	95	47	28	53	73	59	38	27	23	25	13	36	39	23	64	65	86	117	132	90	52	49	130	283	408	347	146	49	54	50	55	31	178	155	28	26	49	43	42	33	22	23	5	22	229	424	288	853	520	34	24	13	17	19	0	0	371	218	307	214	7	202	411	174	97	42	18	45	66	52	37	27	17	27	49	89	90	59	58	48	70	108	145	123	77	60	47	29	178	389	448	284	78	52	51	36	200	178	31	55	92	95	29	1	6	16	13	25	77	296	657	825	272	34	7	8	20	81	0	0	417	101	377	220	12	214	408	167	101	45	13	40	63	43	31	26	20	34	79	29	51	53	55	42	40	79	144	160	103	44	38	44	47	164	398	565	409	95	64	55	221	200	20	129	192	215	157	14	8	11	12	24	56	396	641	356	31	3	9	39	108	303	0	0	314	122	379	220	7	223	403	157	96	44	13	40	63	41	30	24	22	65	40	21	30	48	64	55	39	51	125	177	115	53	61	87	76	56	76	344	634	404	56	92	246	211	20	168	332	241	348	94	7	5	9	19	279	551	312	14	10	8	30	126	289	462	0	0	149	162	360	223	7	224	403	151	94	39	14	39	65	44	32	13	41	43	16	25	21	66	85	65	32	25	103	174	132	103	113	59	25	43	52	22	433	673	377	25	287	221	27	168	453	178	454	252	30	4	16	161	506	415	55	18	8	8	72	277	439	379	0	0	29	156	348	226	10	218	402	155	94	42	17	35	65	43	60	27	74	23	21	32	64	99	73	32	30	52	130	202	179	115	52	45	27	23	23	46	99	481	712	312	280	242	35	164	493	262	396	433	148	9	62	410	512	144	26	17	3	17	202	444	395	205	0	0	5	149	347	226	10	209	400	166	88	52	22	33	59	42	121	70	130	36	25	59	88	75	23	37	47	96	253	233	108	55	48	36	31	21	18	24	36	81	552	641	140	278	45	160	489	361	232	528	373	324	334	579	282	22	10	16	7	118	422	463	238	104	0	0	13	141	349	234	11	208	407	175	90	54	27	36	52	95	172	112	160	46	44	72	65	52	60	36	120	255	220	93	53	46	46	42	49	43	31	29	38	52	181	644	298	258	55	165	495	292	475	781	578	379	675	745	104	25	19	11	56	339	515	300	113	34	0	0	42	128	337	246	21	216	418	178	98	58	23	33	49	205	154	215	139	58	61	56	38	43	25	129	229	165	83	41	36	45	66	72	55	42	29	42	67	70	29	380	465	197	34	175	377	481	827	649	257	58	662	861	162	16	27	20	219	511	385	129	40	13	0	0	32	113	320	249	31	219	425	179	102	58	11	27	43	292	97	315	104	65	78	49	30	30	117	168	125	95	60	38	36	61	70	72	72	65	67	83	79	78	72	92	301	262	92	175	432	632	502	175	31	73	617	867	194	21	4	109	436	498	192	45	2	18	0	0	11	112	313	251	48	220	437	180	97	46	14	29	38	368	127	380	114	38	79	51	47	108	115	71	94	117	71	61	65	48	45	63	79	78	75	54	53	67	98	113	86	193	218	308	343	235	78	22	36	81	708	860	135	20	61	319	527	331	77	13	15	9	0	0	11	117	316	261	49	224	448	184	94	37	8	20	21	433	185	405	184	34	71	73	113	99	36	47	72	112	94	50	37	36	40	65	87	80	49	31	48	92	114	99	57	58	161	156	61	8	17	90	140	214	806	762	48	2	199	483	420	153	36	12	14	11	0	0	18	125	326	265	42	222	446	188	89	32	4	12	29	460	225	352	240	81	85	123	95	37	34	49	48	84	94	65	51	60	67	72	86	88	82	86	106	97	44	59	90	75	31	21	21	13	54	206	188	317	796	525	1	83	392	495	245	57	5	12	9	5	0	0	5	139	328	253	38	213	446	195	87	31	8	10	44	476	265	296	270	147	128	103	29	34	35	52	52	56	118	187	196	171	148	103	78	114	167	164	95	49	113	114	67	31	16	24	35	8	209	361	219	364	710	243	29	239	512	365	109	17	16	14	12	8	0	0	28	148	316	240	39	204	458	208	91	35	4	1	47	507	318	288	269	131	62	60	33	26	41	53	60	93	181	264	285	225	263	344	411	500	463	302	152	159	123	47	12	28	36	27	77	292	504	334	190	489	586	51	73	391	491	199	47	10	12	10	11	12	0	0	19	146	305	232	40	198	466	218	93	42	9	8	27	523	396	308	278	108	15	66	37	32	24	37	76	152	228	281	296	248	275	329	446	393	348	404	263	117	29	7	12	32	55	272	501	529	275	27	196	588	330	31	196	494	393	108	30	20	17	10	5	8	0	0	14	143	303	227	39	193	462	222	89	44	9	6	23	470	480	251	303	124	34	60	34	33	31	69	186	283	329	249	215	217	170	113	72	387	643	435	164	43	43	26	71	256	427	439	265	65	203	185	537	388	78	56	359	513	260	68	26	24	21	17	9	8	0	0	23	124	310	235	38	188	461	231	87	46	14	4	26	308	528	22	359	170	14	12	25	25	93	220	300	274	218	103	124	136	88	55	363	628	457	137	34	65	57	49	298	531	440	164	206	200	297	615	377	69	11	142	454	444	153	38	21	26	24	19	17	20	0	0	41	100	324	261	43	188	472	242	92	46	11	17	38	113	480	280	350	254	34	19	5	71	239	266	211	94	59	35	93	102	143	263	496	410	93	37	41	34	56	15	405	447	120	280	205	496	677	367	50	18	8	275	467	340	115	12	13	21	24	23	18	25	0	0	53	74	329	288	52	188	480	247	99	51	15	25	62	24	356	390	301	308	33	28	87	251	331	196	79	22	40	116	25	154	322	437	424	144	74	71	31	86	93	84	416	575	112	381	224	590	311	11	26	42	87	392	426	232	91	18	12	10	13	17	18	28	0	0	51	63	327	298	58	182	473	248	101	58	21	35	83	49	242	327	277	253	22	90	295	328	209	94	88	37	100	131	110	460	509	403	248	33	82	58	76	137	87	69	287	701	348	426	142	491	31	61	39	51	229	474	343	133	59	67	51	32	16	17	19	31	0	0	46	64	325	300	62	177	462	245	95	57	12	39	82	33	124	239	174	137	54	270	339	174	30	34	36	102	96	55	332	630	377	172	79	113	63	68	134	125	62	51	173	706	603	332	85	429	46	25	51	30	372	498	236	73	10	22	44	65	72	63	46	34	0	0	43	68	328	307	66	179	461	241	92	56	8	35	75	48	34	102	113	76	220	281	179	15	30	46	21	76	89	234	512	429	129	59	175	195	90	105	116	105	64	60	67	617	736	186	136	341	72	21	53	117	455	436	141	36	41	55	46	23	41	60	66	58	0	0	32	64	327	317	72	183	469	242	96	53	10	34	78	110	61	101	137	182	298	131	126	50	21	49	52	50	223	533	453	178	52	259	272	259	324	299	181	126	86	149	337	598	659	89	204	245	126	45	46	259	473	312	96	16	20	7	46	49	41	37	19	39	0	0	32	55	329	332	79	181	477	251	97	48	22	61	154	201	119	248	165	202	138	49	109	82	23	39	11	152	479	602	246	184	491	567	408	331	353	409	284	176	111	450	675	629	428	84	263	168	208	64	3	371	466	196	52	27	30	35	34	24	14	36	51	46	0	0	60	68	352	356	84	180	482	256	96	43	29	112	273	164	189	364	219	127	66	101	160	53	20	26	20	387	636	403	121	577	541	314	179	160	132	297	301	235	315	601	327	185	211	138	320	120	295	70	107	447	426	115	4	24	22	23	25	28	35	60	80	50	0	0	68	41	375	382	92	185	481	244	109	31	42	171	307	125	433	331	112	47	179	135	251	35	53	72	185	616	546	76	362	466	264	329	532	425	342	143	320	227	403	413	206	274	238	140	370	83	357	81	251	492	318	58	24	12	8	14	30	46	62	63	11	134	0	0	88	40	392	408	104	186	478	231	110	67	131	143	208	442	302	82	94	89	215	122	318	60	47	66	487	643	167	309	244	198	378	370	337	75	270	110	313	250	346	386	207	317	262	82	409	53	408	58	366	487	193	18	25	10	10	24	42	59	14	123	252	292	0	0	119	70	415	435	115	177	480	236	129	135	135	102	295	227	94	89	166	146	198	62	293	166	28	293	655	330	326	320	119	150	190	233	185	73	177	136	239	334	177	332	234	319	293	26	445	42	457	37	438	448	113	13	15	10	27	44	58	4	179	302	248	138	0	0	117	60	439	451	115	168	478	243	149	141	91	233	214	111	142	217	209	185	228	151	162	284	110	530	525	241	446	168	195	162	109	104	102	90	157	135	158	392	48	345	211	298	332	76	471	39	490	178	490	361	63	25	17	20	28	45	32	147	306	209	69	50	0	0	89	58	457	453	111	161	474	221	172	47	123	153	124	136	31	282	145	109	124	232	111	385	213	654	75	588	226	286	160	161	148	85	41	129	167	129	121	421	16	344	184	344	344	81	465	7	487	294	516	242	21	28	28	28	32	50	68	289	243	73	52	72	0	0	88	53	475	461	106	153	476	184	194	70	110	79	88	172	58	300	161	98	201	237	80	246	367	422	452	479	246	285	145	135	133	119	88	154	174	98	93	437	48	355	193	416	308	38	412	90	427	335	502	127	16	27	28	22	36	23	211	306	128	63	68	41	0	0	101	46	483	459	106	145	469	197	174	135	109	43	80	178	29	311	205	98	219	119	254	173	472	142	577	132	318	233	136	117	96	86	68	136	162	92	106	436	151	337	264	462	215	5	337	174	292	338	425	52	34	24	22	21	49	65	304	231	74	69	39	15	0	0	81	120	484	400	103	130	460	249	133	100	121	71	73	151	147	282	269	128	118	82	213	488	145	557	334	177	310	179	117	105	80	58	38	88	159	104	123	331	75	293	383	440	66	47	244	227	109	312	293	14	33	17	20	26	52	158	322	156	62	43	22	16	0	0	50	174	466	318	97	115	469	272	150	105	161	60	72	145	199	110	200	187	161	417	376	104	387	476	78	210	302	139	101	90	72	65	57	33	107	203	370	325	120	340	477	324	77	48	132	267	146	251	165	7	32	21	21	29	38	231	322	114	47	18	22	12	0	0	51	220	468	293	93	114	477	256	166	131	195	45	25	125	121	92	57	163	438	425	141	350	379	144	14	179	295	148	107	73	58	69	143	162	120	148	200	179	262	453	484	155	126	19	42	318	290	178	84	19	29	18	19	32	15	275	328	89	27	15	27	17	0	0	42	244	474	306	91	125	446	250	113	161	235	77	123	157	61	83	40	260	407	80	406	404	203	28	19	137	253	192	142	76	69	41	97	126	120	145	177	196	277	483	387	45	135	25	40	369	388	114	45	26	25	18	20	36	12	316	329	64	23	26	26	7	0	0	66	267	464	318	94	133	425	230	43	160	229	19	266	164	130	68	161	312	144	312	488	295	63	43	29	99	178	210	196	108	102	7	113	54	60	101	65	55	315	466	208	51	142	37	84	404	439	59	27	23	31	27	24	48	32	365	319	46	30	21	7	29	0	0	104	292	425	325	108	136	473	221	60	168	156	51	318	202	165	92	137	257	104	499	426	122	22	33	33	72	123	202	243	172	129	59	48	108	132	110	42	175	497	365	29	65	138	48	99	421	454	22	17	12	20	29	36	69	56	415	309	26	11	14	26	22	0	0	149	324	380	314	116	134	505	234	91	177	86	81	299	265	78	62	56	177	326	548	188	5	27	15	42	53	72	141	240	282	220	116	49	106	185	192	132	365	503	147	42	56	140	52	105	426	444	14	21	21	18	27	49	85	90	452	283	18	7	25	44	115	0	0	150	341	390	309	111	136	456	264	109	146	37	94	270	208	107	143	62	47	293	327	17	32	54	13	28	39	29	50	108	224	252	168	122	116	91	16	117	483	438	49	17	57	159	54	104	410	378	146	155	112	68	38	58	96	171	473	207	31	34	154	408	678	0	0	65	290	450	360	109	120	381	266	218	154	37	76	250	183	42	123	133	33	258	352	150	33	79	19	11	36	32	36	137	246	220	134	118	122	113	85	60	454	684	517	247	35	180	44	75	372	278	157	152	185	203	189	152	131	287	473	113	46	155	499	773	693	0	0	297	102	446	448	123	91	332	339	319	93	85	106	149	178	72	18	120	98	67	273	250	64	71	31	12	27	36	41	207	274	160	103	87	64	70	112	177	284	571	766	759	431	97	68	42	355	257	133	79	32	81	161	182	151	392	504	63	134	480	734	496	69	0	0	420	290	338	515	138	89	272	442	377	73	109	11	32	125	196	175	153	171	56	180	239	171	57	38	26	38	85	74	196	295	103	69	55	31	65	154	187	132	11	249	632	811	467	66	66	370	297	90	125	145	150	115	47	43	423	526	17	394	706	444	60	156	0	0	144	453	200	553	149	103	245	520	390	81	120	111	56	78	143	102	163	252	13	178	198	223	106	31	17	29	132	89	125	298	122	78	42	33	88	132	137	127	110	99	75	496	799	465	63	398	300	10	40	59	103	141	125	186	476	449	135	636	546	41	136	81	0	0	287	474	55	577	155	108	321	561	304	44	38	118	8	68	102	93	129	212	141	183	160	174	187	28	6	37	193	73	67	299	138	56	30	36	78	102	110	112	109	111	101	73	597	834	164	446	269	2	27	29	47	63	96	306	449	246	366	668	262	110	38	11	0	0	514	464	37	600	165	115	398	541	236	19	64	149	55	94	88	172	156	182	181	149	169	191	213	28	28	56	266	112	68	286	133	35	23	40	66	82	96	105	112	116	109	84	214	878	446	462	229	7	29	40	56	24	264	435	302	10	551	546	48	49	33	7	0	0	601	422	72	599	170	113	435	525	217	7	132	99	96	94	43	147	198	240	164	71	127	228	173	99	67	139	340	114	59	270	119	26	5	38	66	77	88	102	122	125	113	86	24	685	589	364	176	28	30	40	60	56	406	365	69	257	609	352	32	14	29	10	0	0	636	341	104	566	173	105	434	534	214	38	95	83	89	74	19	109	157	273	133	161	240	223	72	85	59	233	333	103	31	273	103	24	17	18	60	76	83	95	124	137	120	87	66	423	567	191	121	29	16	34	61	92	399	312	67	427	553	187	31	45	18	32	0	0	645	231	127	516	186	97	408	546	226	48	37	30	24	45	28	108	129	205	180	121	171	205	177	146	50	309	228	136	58	270	78	22	30	10	45	68	74	88	115	143	134	96	67	189	499	227	164	150	65	16	46	68	284	369	116	538	461	132	64	41	19	51	0	0	654	116	162	455	208	90	388	540	245	28	32	28	15	42	21	113	159	85	76	129	193	248	69	50	215	324	39	120	177	211	44	8	24	20	28	62	65	80	105	136	144	116	77	38	442	508	235	322	325	290	193	100	167	342	158	642	374	91	19	38	7	91	0	0	646	80	218	388	230	90	400	530	246	16	33	33	9	53	21	118	229	133	178	103	258	188	25	135	332	191	142	59	269	118	31	10	12	27	8	52	66	79	98	125	146	136	95	53	366	640	238	88	220	362	428	360	267	202	411	682	232	63	28	24	8	155	0	0	574	85	251	317	246	107	424	520	226	21	19	37	36	53	50	60	202	261	33	287	246	47	63	249	247	94	68	233	227	52	21	16	6	30	18	22	57	80	93	115	142	150	115	73	211	642	400	99	141	122	268	599	293	263	693	465	66	84	25	51	10	198	0	0	485	41	243	250	261	116	470	521	181	24	13	56	65	79	128	93	79	240	102	318	213	12	116	232	127	10	188	245	104	30	16	19	17	26	37	19	32	65	88	102	126	150	131	89	49	582	502	41	124	225	277	544	297	636	510	64	135	13	34	117	78	211	0	0	545	165	257	183	274	116	557	522	96	38	40	85	45	100	108	126	72	174	38	275	171	63	198	226	184	222	208	110	43	31	21	22	27	12	30	36	26	42	74	92	114	136	137	113	51	479	585	83	51	148	156	247	333	392	132	110	17	46	138	95	198	208	0	0	629	376	312	100	272	140	618	488	17	60	59	97	49	97	46	124	67	82	124	170	175	199	304	284	223	137	58	34	29	29	27	29	32	21	3	20	29	36	56	77	99	115	130	123	88	315	619	216	97	76	65	10	66	171	99	8	39	115	189	113	280	92	0	0	0	0	0	0	0	0	0	0	0	0	0	0	0	0	0	0	0	0	0	0	0	0	0	0	0	0	0	0	0	0	0	0	0	0	0	0	0	0	0	0	0	0	0	0	0	0	0	0	0	0	0	0	0	0	0	0	0	0	0	0	0	0	0	