P2
64 64
255
164 162 158 157 162 176 171 127 81 91 95 96 96 104 114 120 125 126 126 127 129 130 128 127 130 129 128 126 128 125 128 127 127 125 124 123 122 121 114 100 114 150 162 153 155 157 155 155 158 159 189 236 205 98 111 114 116 115 117 117 119 117 114 133 
159 158 157 157 167 175 167 121 76 86 94 92 93 103 114 118 121 124 125 124 127 129 128 127 126 125 127 124 126 124 129 126 126 124 122 122 123 122 115 104 100 137 159 160 162 162 158 156 155 155 159 222 236 138 103 112 114 114 115 117 119 122 83 26 
159 160 159 161 171 169 161 124 76 87 93 92 91 103 112 117 122 123 126 125 126 127 127 125 126 125 126 125 125 124 130 128 127 124 123 120 123 121 117 107 96 120 154 166 165 166 162 159 155 153 151 180 237 213 103 108 114 115 117 122 128 78 25 23 
159 162 161 169 171 163 162 121 74 86 94 92 93 101 112 116 120 121 122 123 124 124 124 125 127 120 116 120 120 119 123 125 126 122 121 120 119 121 116 108 98 117 150 165 164 163 161 160 157 156 152 148 215 242 162 103 113 115 117 125 76 24 23 28 
163 165 169 173 169 162 162 120 74 87 92 91 92 102 111 114 119 121 119 122 123 122 125 123 123 119 114 117 117 114 120 124 126 122 122 119 119 120 117 109 99 114 142 158 161 161 159 158 158 158 154 147 164 236 234 117 104 114 122 75 20 30 29 26 
164 168 171 160 162 163 161 119 71 86 92 92 91 101 111 115 117 118 118 122 120 123 123 121 123 122 123 130 137 131 119 117 120 119 122 121 119 119 115 107 102 110 138 150 157 159 156 156 157 154 147 143 141 207 245 188 97 110 76 21 26 34 26 22 
164 172 157 138 160 166 163 121 70 82 92 91 93 103 112 116 119 120 121 123 120 122 122 126 143 145 160 175 190 188 192 175 139 113 121 120 119 117 112 106 100 108 138 145 150 156 153 153 152 146 141 139 139 157 233 242 142 73 19 23 31 29 21 20 
171 169 128 120 164 169 165 122 64 78 86 87 92 101 109 114 115 117 119 121 127 135 122 131 136 145 154 167 179 187 196 202 211 179 119 113 114 113 107 102 95 108 140 145 147 150 151 144 143 144 141 138 139 138 189 246 186 18 22 30 27 26 23 24 
177 152 84 115 166 170 164 119 60 75 84 86 89 96 105 109 114 115 116 126 106 113 115 128 128 134 142 159 180 189 196 204 207 214 204 133 100 104 105 99 93 106 143 150 144 139 145 144 141 144 140 140 142 143 151 211 64 18 27 30 24 25 27 20 
167 117 66 116 166 171 162 118 60 76 87 87 89 97 105 107 112 114 120 115 100 108 118 123 130 133 138 151 171 191 199 205 209 209 212 222 177 93 97 94 91 104 146 156 148 120 120 145 143 144 141 142 144 147 152 58 19 26 27 23 29 29 34 74 
143 79 69 117 164 172 162 115 62 76 85 88 89 98 104 108 112 114 113 99 107 112 113 118 127 132 136 146 170 194 201 195 205 221 230 232 239 178 78 86 84 102 145 154 151 108 67 130 144 144 142 143 143 151 87 18 25 30 22 27 28 48 70 150 
100 73 72 116 161 171 163 115 62 78 85 87 88 97 105 108 112 113 100 103 110 105 110 123 134 139 142 144 165 183 185 213 226 224 223 227 232 242 131 69 77 100 146 155 152 115 30 93 142 144 141 143 145 125 26 23 31 24 29 25 40 79 141 147 
72 75 73 113 160 171 162 116 61 78 86 87 90 96 106 108 116 105 104 103 106 111 121 130 135 139 135 140 155 182 214 218 217 214 221 222 226 231 234 149 59 96 145 155 154 113 29 46 119 145 140 144 147 44 18 34 27 27 26 30 58 135 150 168 
75 77 75 114 160 169 162 117 63 75 84 90 89 97 105 105 136 91 100 102 107 116 129 137 134 134 122 137 189 206 206 205 211 221 223 225 225 226 232 242 103 86 142 155 153 115 32 18 68 134 146 146 87 18 28 31 27 27 28 34 127 141 162 169 
76 73 70 110 160 168 162 118 61 74 82 86 90 96 101 110 147 92 101 103 110 123 131 130 130 114 144 192 193 197 196 210 214 216 217 220 221 226 229 235 211 74 141 154 155 116 33 16 86 213 229 221 30 25 32 31 29 30 24 105 145 160 166 162 
76 79 76 109 160 172 163 116 57 71 83 86 88 94 101 148 132 91 100 104 117 118 118 124 111 157 182 177 188 189 203 202 206 207 215 218 219 220 226 226 237 132 138 158 154 109 24 126 207 231 237 244 79 24 30 24 24 29 70 147 153 164 163 162 
82 85 82 111 161 173 167 119 62 75 87 90 89 97 101 171 117 88 95 108 113 116 123 112 153 165 170 183 192 193 194 189 197 206 212 213 215 203 218 221 222 223 160 154 147 115 176 212 230 225 225 243 84 28 27 22 28 25 136 151 164 160 161 159 
87 86 83 114 161 176 172 122 63 77 87 88 87 93 91 183 115 91 90 99 111 114 114 145 150 148 170 184 180 189 180 187 192 194 201 204 194 203 212 211 211 209 203 154 185 212 218 226 221 223 231 245 54 29 24 22 30 92 150 161 163 160 159 157 
86 85 85 115 163 180 176 123 62 77 86 86 84 91 88 205 131 99 94 101 112 113 142 142 137 153 161 174 177 174 182 184 182 190 194 193 198 203 200 194 196 189 204 206 214 223 221 217 223 212 228 229 20 27 22 27 59 144 154 165 163 161 159 159 
83 83 83 112 165 181 175 125 64 78 86 86 85 89 92 204 150 121 91 100 105 134 139 129 149 147 150 163 173 177 175 179 174 174 181 190 195 191 189 179 184 196 207 217 216 215 218 221 214 174 196 152 23 26 21 33 113 151 164 164 163 161 161 160 
82 80 81 117 165 179 174 126 64 78 85 85 85 86 96 202 160 133 96 100 133 129 124 141 138 143 149 159 161 165 166 167 165 169 174 176 177 176 170 186 200 212 214 211 212 219 220 226 179 163 183 73 23 24 26 75 149 156 164 160 162 160 161 161 
84 83 87 119 165 179 175 128 60 76 83 84 84 84 99 213 174 150 111 119 125 120 137 131 130 141 148 131 123 122 141 131 156 158 157 140 152 165 190 206 212 205 209 215 220 222 226 206 131 112 189 17 26 31 35 126 151 163 162 159 160 158 159 159 
87 86 91 122 167 180 177 131 59 75 83 87 85 85 91 218 190 136 116 112 110 133 126 124 129 138 127 118 97 75 136 95 77 74 41 40 125 187 208 210 211 208 215 217 223 212 159 98 90 180 91 22 23 26 63 147 160 164 163 160 158 158 158 157 
90 85 92 123 167 179 177 130 62 76 84 86 86 84 74 210 197 129 130 100 129 123 122 126 133 117 117 87 62 43 92 72 75 51 23 122 177 202 209 206 207 208 213 212 169 87 88 128 185 85 22 25 27 32 116 152 169 167 164 162 160 157 157 156 
95 90 89 121 166 178 175 132 61 74 82 86 85 86 81 166 207 159 119 123 119 115 119 123 118 98 57 47 27 64 51 79 51 62 130 185 197 196 195 198 205 208 157 95 115 156 173 191 89 22 31 25 28 50 144 162 171 169 166 163 160 160 159 155 
96 91 86 115 167 180 177 133 59 72 82 83 84 88 92 103 214 184 116 121 115 119 119 116 71 62 40 58 23 48 39 53 81 113 188 206 194 191 188 195 201 183 69 94 116 158 180 72 19 28 33 23 31 92 140 173 171 170 168 165 163 162 160 156 
97 90 82 107 165 181 179 133 57 71 82 83 84 90 100 87 182 198 120 107 116 118 112 75 46 65 33 59 39 27 37 58 96 159 195 189 186 185 188 204 208 209 116 66 99 149 54 18 30 35 26 24 40 120 147 175 170 170 168 167 166 163 161 156 
95 91 82 106 164 181 178 136 60 74 86 88 85 92 104 96 172 169 104 110 116 116 60 44 23 47 46 46 74 24 37 109 147 193 196 171 185 175 201 214 215 220 150 37 64 149 33 23 33 39 23 24 76 133 155 166 169 167 167 168 165 164 161 156 
93 90 83 106 163 180 179 136 64 74 87 89 88 100 110 105 134 151 104 116 105 51 31 41 35 28 37 68 64 25 125 178 165 190 185 171 166 189 208 217 223 229 187 52 29 139 39 31 38 36 23 26 118 148 162 155 153 157 160 164 164 161 159 154 
92 87 80 104 163 181 179 137 65 78 87 91 90 99 107 108 110 127 121 119 58 42 24 42 37 32 35 50 43 109 161 192 175 190 165 163 179 191 209 217 223 230 211 83 19 122 48 35 39 30 28 50 138 162 167 166 163 157 149 149 149 152 155 153 
88 86 81 104 163 183 181 136 63 75 88 90 89 98 108 122 111 95 126 84 52 55 23 50 23 37 43 37 80 156 176 190 190 123 129 158 187 186 201 209 215 224 208 81 16 99 70 41 43 28 27 94 138 166 165 165 170 166 157 153 148 144 143 145 
89 90 83 101 163 183 183 138 64 77 88 87 87 95 110 142 100 81 89 55 52 68 28 36 34 26 48 53 150 195 181 181 126 125 113 73 115 171 190 204 198 144 96 74 25 80 89 42 37 28 34 122 148 164 161 160 161 162 158 158 160 153 145 135 
86 84 75 95 162 184 183 140 62 72 86 84 81 121 149 152 121 53 53 74 79 33 47 20 58 28 18 124 184 211 165 53 37 34 57 62 120 143 183 215 116 53 38 38 23 71 104 42 27 27 48 135 159 160 158 159 159 159 156 156 157 148 144 137 
85 80 67 89 163 185 185 138 64 79 88 88 72 118 171 119 51 48 46 48 96 22 30 41 22 22 68 162 201 192 94 40 70 70 208 96 104 131 191 181 60 83 106 22 20 66 114 49 26 25 88 144 163 158 155 155 155 156 153 150 146 138 131 142 
88 83 67 87 163 188 189 141 71 85 98 73 93 144 132 52 64 46 54 72 106 47 20 25 22 28 136 190 188 117 131 122 112 139 170 147 116 126 199 181 127 131 74 40 26 59 127 50 24 32 118 151 159 155 155 158 156 152 147 142 136 147 178 196 
84 74 58 78 161 188 191 144 70 85 99 123 122 67 35 48 97 53 45 82 96 58 22 23 19 88 173 191 94 126 151 157 153 153 166 157 129 122 189 212 154 126 98 58 27 51 140 41 26 43 133 158 157 154 153 153 151 148 142 135 173 203 205 203 
75 65 49 73 160 187 189 145 69 83 113 127 102 66 50 92 86 22 39 76 81 87 29 21 46 138 202 75 100 126 151 172 182 182 180 157 139 122 175 221 168 135 118 65 32 42 150 29 24 74 141 162 157 155 154 150 147 141 135 174 211 210 205 209 
61 57 45 71 159 184 186 144 69 84 101 98 81 68 58 95 49 26 25 35 28 107 58 12 93 188 109 44 108 125 144 164 183 184 176 152 138 122 164 225 166 141 121 56 32 33 154 30 30 106 155 160 157 153 150 148 145 136 152 207 209 211 217 221 
60 56 39 67 157 180 183 142 63 103 122 77 96 60 70 107 65 33 16 56 54 132 74 30 136 175 22 51 103 124 140 156 168 175 169 142 127 116 150 230 161 140 117 36 40 28 143 51 32 132 161 159 157 152 148 146 140 135 194 209 211 222 227 223 
64 55 34 60 158 182 185 145 66 99 108 67 83 60 70 109 60 28 21 68 96 52 20 107 158 54 22 63 101 121 135 148 154 163 159 128 125 124 140 228 155 137 99 22 44 26 128 72 54 144 162 155 153 152 150 147 136 158 211 210 222 226 226 227 
63 57 43 78 160 180 186 147 75 81 97 65 83 66 56 96 109 29 39 24 69 23 63 187 109 17 27 75 102 119 132 146 151 156 158 132 112 96 113 189 150 131 57 24 44 29 109 86 91 152 160 154 152 150 147 145 134 187 212 219 226 227 230 227 
59 57 49 104 163 176 187 149 68 78 110 48 58 58 62 97 112 57 90 29 67 126 110 139 24 36 31 87 106 118 129 140 147 155 159 151 136 154 178 189 147 113 27 31 56 36 86 99 123 154 158 153 151 149 147 142 136 201 215 226 225 229 231 230 
52 50 46 107 163 178 186 150 66 86 110 60 67 43 53 70 81 107 59 55 136 155 105 42 27 38 27 86 104 119 129 137 139 146 149 147 153 201 206 187 139 68 25 36 57 37 64 117 139 156 157 151 149 146 145 139 142 208 223 228 226 229 232 232 
38 44 46 103 166 182 188 151 70 95 104 46 48 43 77 75 66 97 79 159 186 106 68 36 23 42 28 74 91 120 124 134 138 110 115 122 118 127 134 125 124 29 27 39 59 40 47 133 146 158 155 150 150 147 144 138 146 215 229 228 229 232 235 234 
34 40 50 109 167 186 189 152 100 88 98 53 27 55 102 73 87 73 123 164 131 114 27 24 27 38 35 63 77 110 117 127 143 129 110 116 140 160 154 139 69 25 23 38 62 47 39 150 151 159 157 154 150 148 146 137 154 228 231 232 233 235 233 231 
30 32 51 102 161 187 189 153 60 107 67 70 36 52 119 99 76 112 127 160 148 36 34 29 30 38 37 55 57 91 107 122 133 137 125 120 122 128 142 117 25 25 32 40 64 51 40 156 154 158 158 157 153 149 143 132 157 237 234 237 236 230 226 226 
25 24 69 107 157 185 187 151 62 96 61 51 40 34 117 117 99 97 95 166 51 28 34 29 28 30 37 36 44 62 92 117 129 136 141 150 165 161 148 56 21 32 34 44 67 55 41 163 154 160 157 155 154 149 142 127 160 241 236 235 233 232 229 227 
24 22 64 110 158 183 186 151 60 75 41 55 43 29 100 63 118 119 113 77 35 29 39 31 28 26 34 35 39 38 46 91 117 135 150 169 172 169 131 31 31 37 30 51 70 60 45 165 149 155 154 152 153 146 139 124 179 242 232 236 233 226 213 167 
24 19 47 96 159 181 184 144 105 100 38 46 39 22 117 72 83 106 139 116 51 27 49 31 25 28 27 38 36 49 61 86 107 122 141 156 164 161 146 59 35 36 29 53 74 66 55 157 110 120 129 139 147 143 135 117 207 234 231 230 217 152 53 27 
65 33 35 67 151 179 181 165 87 70 22 51 41 50 78 99 99 96 103 95 127 43 46 36 27 28 28 34 35 45 100 119 124 132 141 143 145 174 207 216 163 72 22 53 72 62 63 147 124 116 107 100 103 109 113 106 215 226 227 220 152 42 40 65 
132 98 56 45 145 177 181 151 116 46 16 75 49 77 40 85 89 75 110 125 87 80 38 37 29 28 33 33 46 41 96 115 121 132 136 138 154 182 202 210 219 223 132 40 61 53 66 147 145 138 133 119 104 88 106 83 212 230 227 149 47 59 71 70 
128 151 102 43 146 182 182 159 136 24 26 38 50 46 51 59 47 65 101 137 94 102 51 39 33 31 38 40 69 40 99 113 128 135 136 143 161 175 190 200 211 223 233 149 36 48 72 145 149 144 141 136 126 116 122 124 228 234 203 61 72 77 91 78 
58 160 145 43 148 186 187 158 99 16 33 30 28 66 27 44 64 67 85 116 135 70 87 31 34 25 37 31 88 46 93 124 130 135 138 144 157 168 180 192 205 218 229 239 94 32 80 142 147 144 142 139 132 123 133 171 235 232 146 69 82 96 83 90 
23 154 159 34 147 186 188 157 91 22 32 24 40 61 33 38 45 79 78 115 121 59 100 33 43 26 32 34 92 54 98 124 131 134 137 144 152 162 175 187 201 216 229 237 205 17 91 146 149 145 140 134 128 123 185 221 237 216 98 80 98 86 85 90 
11 141 162 34 146 187 190 158 74 30 22 20 74 46 35 23 28 53 83 113 128 127 84 34 38 31 30 61 114 62 103 128 132 132 134 141 149 159 169 183 199 213 227 233 242 62 101 150 145 143 139 132 123 146 234 231 235 170 83 86 100 80 92 84 
7 131 168 43 143 184 184 158 78 24 24 35 43 45 35 23 30 48 62 127 92 86 74 70 64 33 34 88 118 62 110 128 136 133 130 137 145 155 164 177 195 210 222 231 237 129 114 150 143 140 139 133 123 164 231 232 222 126 90 91 88 86 88 74 
9 112 170 54 140 185 187 161 81 23 27 41 32 36 29 30 37 56 75 111 96 72 33 36 41 28 53 105 115 64 122 135 137 135 131 134 142 151 161 172 186 206 219 227 234 192 125 145 144 143 142 134 130 149 202 235 196 104 85 82 75 89 81 81 
10 96 169 69 135 182 186 159 96 24 33 25 37 40 34 29 41 55 60 62 58 116 31 25 20 28 75 112 88 84 130 137 140 138 134 134 142 149 155 166 180 199 214 227 233 233 122 86 107 128 138 139 147 140 165 237 164 88 80 65 87 80 83 64 
8 85 182 83 129 181 188 161 86 29 21 34 36 37 36 23 33 58 112 68 72 41 22 20 17 49 100 107 49 114 130 137 138 139 136 132 137 145 152 163 175 191 209 224 231 238 129 71 65 61 65 81 136 160 194 222 105 56 69 81 80 82 83 41 
54 97 190 103 128 182 189 155 83 24 30 29 29 38 39 24 27 33 75 121 91 23 19 16 28 78 108 59 80 127 133 136 138 141 138 133 135 138 148 157 168 184 202 218 228 235 181 87 90 73 45 18 115 196 215 161 46 54 73 84 69 91 72 38 
77 121 187 122 126 182 191 149 81 23 26 29 27 39 43 36 41 42 49 86 67 22 19 18 59 85 54 69 118 129 134 136 137 140 141 138 135 136 144 152 165 175 193 212 225 231 223 81 95 85 71 53 121 217 151 52 45 63 87 60 79 96 65 45 
50 98 179 131 123 182 193 159 49 24 33 30 37 50 47 75 44 41 58 101 61 20 19 23 43 59 95 114 122 128 132 135 137 141 145 143 139 139 140 149 160 172 188 204 219 230 234 108 87 95 91 96 113 134 66 60 62 90 62 59 102 90 49 39 
35 67 193 165 125 182 194 145 37 26 33 37 41 55 33 93 45 58 62 67 63 19 24 59 93 106 116 119 123 126 130 133 136 139 143 145 145 143 144 149 156 168 181 195 211 225 231 145 80 98 110 109 101 91 97 74 81 62 56 92 108 67 38 34 
28 52 206 193 127 181 191 140 33 27 40 48 47 70 46 66 71 68 42 44 72 51 53 85 103 113 119 119 124 125 129 130 134 138 142 143 145 147 147 152 158 168 177 191 206 218 229 190 76 87 109 120 112 122 101 75 69 69 82 122 81 33 36 72 
